<?xml version="1.0" encoding="UTF-8"?>
<svg id="Layer_1" xmlns="http://www.w3.org/2000/svg" version="1.1" xmlns:xlink="http://www.w3.org/1999/xlink" viewBox="0 0 31.9 32">
  <!-- Generator: Adobe Illustrator 29.3.1, SVG Export Plug-In . SVG Version: 2.1.0 Build 151)  -->
  <defs>
    <style>
      .st0 {
        fill: #2f419a;
      }

      .st1 {
        fill: #fff;
      }

      .st2 {
        fill: #1f2871;
      }
    </style>
  </defs>
  <rect class="st0" x="4.1" y="2.5" width="23.6" height="27" rx="2.3" ry="2.3"/>
  <rect class="st2" x="5.6" y="4.4" width="20.7" height="6.8" rx="2.3" ry="2.3"/>
  <rect class="st1" x="7.2" y="13.3" width="5" height="3.7" rx="1.8" ry="1.8"/>
  <rect class="st1" x="13.4" y="13.3" width="5" height="3.7" rx="1.8" ry="1.8"/>
  <rect class="st1" x="19.7" y="13.3" width="5" height="3.7" rx="1.8" ry="1.8"/>
  <rect class="st1" x="7.2" y="18.2" width="5" height="3.7" rx="1.8" ry="1.8"/>
  <rect class="st1" x="13.4" y="18.2" width="5" height="3.7" rx="1.8" ry="1.8"/>
  <rect class="st1" x="19.7" y="18.2" width="5" height="3.7" rx="1.8" ry="1.8"/>
  <rect class="st1" x="7.2" y="23.1" width="5" height="3.7" rx="1.8" ry="1.8"/>
  <rect class="st1" x="13.4" y="23.1" width="5" height="3.7" rx="1.8" ry="1.8"/>
  <rect class="st1" x="19.7" y="23.1" width="5" height="3.7" rx="1.8" ry="1.8"/>
</svg>